<svg xmlns="http://www.w3.org/2000/svg" width="89" height="86" viewBox="0 0 89 86" fill="none"><path d="M8.70603 32.217L2.26732 43.6595C0.551122 46.7045 0.551123 50.453 2.2697 53.4956L14.2236 74.6694L14.2283 74.6499C12.6787 71.7996 12.4764 68.1802 14.2973 64.9526L18.0011 58.3929L26.763 42.8758L33.047 46.5853L23.1544 29.0722L3.37654 29.0674L8.70603 32.217Z" fill="#1D8242"></path><path d="M22.6318 79.713H38.2299V58.3955H18.0021L14.2983 64.9553C10.597 71.5151 15.2266 79.713 22.6318 79.713Z" fill="#1D8242"></path><path d="M71.303 16.3398L64.831 4.91679C63.1124 1.87422 59.9347 0 56.4999 0H32.5898L32.6041 0.0146037C35.7913 0.0657189 38.9595 1.69654 40.7828 4.92409L44.4866 11.4839L53.2461 27.0034L46.9621 30.7129L66.74 30.708L76.6278 13.1974L71.303 16.3398Z" fill="#136F43"></path><path d="M24.1166 4.92472L16.3164 18.738L34.371 29.3967L44.4849 11.4845L40.7811 4.92472C37.0774 -1.63506 27.8204 -1.63506 24.1166 4.92472Z" fill="#136F43"></path><path d="M53.4503 79.7135L66.361 79.694C69.7981 79.6916 72.9735 77.8173 74.6897 74.7748L86.6435 53.6009L86.6245 53.6058C84.9868 56.4025 82.021 58.3936 78.3767 58.3936H70.9693L53.4479 58.3912V50.9697L43.5625 68.4852L53.4479 86.0006L53.4503 79.7135Z" fill="#2A9941"></path><path d="M86.7118 43.6355L78.9139 29.8223L60.8594 40.481L70.9733 58.3932H78.3808C85.7859 58.3932 90.4155 50.1929 86.7118 43.6355Z" fill="#2A9941"></path></svg>